<?xml version="1.0" standalone="no"?>
<!DOCTYPE svg PUBLIC "-//W3C//DTD SVG 1.1//EN"
  "http://www.w3.org/Graphics/SVG/1.1/DTD/svg11.dtd">
<svg version="1.1" xmlns="http://www.w3.org/2000/svg" xmlns:xlink="http://www.w3.org/1999/xlink" width="1665" height="990" viewBox="-1281 -541 1665 990" id="ccdiagram"><filter id="grayscale"><feColorMatrix type="saturate" values="0"></feColorMatrix></filter><filter id="highlight"><feColorMatrix type="matrix" color-interpolation-filters="sRGB" values="0.20338 0 0 0 0
                0 0.58474 0 0 0
                0 0 0.97033 0 0
                0 0 0 1 0"></feColorMatrix></filter><defs><style type="text/css">@import url('https://fonts.googleapis.com/css2?family=Noto+Sans:ital,wght@0,100..900;1,100..900&amp;family=Roboto+Mono:ital,wght@0,100..700;1,100..700&amp;display=swap');</style></defs><g><rect x="-1281" y="-541" width="1665" height="990" fill="#ffffff" id="interactionLayer"></rect><g style="pointer-events: none;"><g><pattern id="gridPatternMinor" x="0" y="37" width="128" height="74" patternUnits="userSpaceOnUse"><path d="M 0 0 L 128 74" stroke="#eeeeee" stroke-width="1"></path><path d="M 128 0 L 0 74" stroke="#eeeeee" stroke-width="1"></path></pattern><polygon points="-449 -1022, 1240 -46, -449 931, -2138 -46" fill="url(#gridPatternMinor)"></polygon></g></g><g pointer-events="auto"></g><g style="pointer-events: none;"><g><pattern id="gridPatternMajor" x="0" y="37" width="128" height="74" patternUnits="userSpaceOnUse"><path d="M 64 0 L 128 37 64 74 0 37 z" stroke="#54626f" stroke-width="1" fill="none"></path></pattern><polygon points="-449 -1022, 1240 -46, -449 931, -2138 -46" fill="url(#gridPatternMajor)"></polygon></g></g><g pointer-events="auto"><g><g class="cloud-maps_raptor_node" id="3b18c046-bf71-4aaa-90cb-fa5ee18191b8"><g><polygon points="-240 -379, 16 -231, -240 -83, -496 -231" fill="#ececed"></polygon><svg x="-270" y="-486" overflow="visible"><g fill="#4286c5" fill-opacity="1" stroke="none" transform="scale(1.25) matrix(0.707 0.409 -0.707 0.409 0 0)"><path stroke="none" d="M144 93.924l-14.834 8.565v19.577l16.954 9.789 14.835-8.565-6.358-3.67-8.477 4.893-10.597-6.117V106.16l8.478-4.894z"></path><path stroke="none" d="M148.24 93.924v7.342l8.476 4.894v9.788l6.358 3.671v-17.13z"></path></g></svg><polygon points="-496 -219, -240 -71, -240 -83, -496 -231" fill="#d2d2d4" stroke="#83838a"></polygon><polygon points="-240 -71, 16 -219, 16 -231, -240 -83" fill="#b8b8bb" stroke="#83838a"></polygon><polygon points="-496 -213, -240 -65, -240 -71, -496 -219" fill="#326ca2" stroke="#326ca2"></polygon><polygon points="-240 -65, 16 -213, 16 -219, -240 -71" fill="#26527b" stroke="#26527b"></polygon><polygon points="-240 -379, -496 -231, -496 -213, -240 -65, 16 -213, 16 -231" fill="none" stroke="#000000" stroke-width="2"></polygon><svg x="-230" y="-337" overflow="visible"><clipPath id="clip-3b18c046-bf71-4aaa-90cb-fa5ee18191b8"><polygon points="-10 -43, 246 105, -10 253, -266 105"></polygon></clipPath><g clip-path="url(#clip-3b18c046-bf71-4aaa-90cb-fa5ee18191b8)" font-family="Noto Sans" font-size="32pt" fill="#000000" font-weight="bold"><text stroke="#ffffff" stroke-width="4" transform="matrix(0.707 0.409 -0.707 0.409 0 0)"><tspan>ECS Cluster</tspan></text><text transform="matrix(0.707 0.409 -0.707 0.409 0 0)"><tspan>ECS Cluster</tspan></text></g></svg></g></g></g></g><g pointer-events="auto"></g><g pointer-events="auto"></g><g pointer-events="auto"></g><g pointer-events="auto"><g><g class="cloud-maps_raptor_node" id="1569488139"><g><g><polygon points="-240 -509, 352 -166, -657 417, -1249 75" stroke="#607d8b" stroke-width="8" fill="none"></polygon></g><svg x="-240" y="-490" overflow="visible"><clipPath id="clip-1569488139"><polygon points="0 0, 560 324, -417 889, -977 565"></polygon></clipPath><g clip-path="url(#clip-1569488139)" font-family="Noto Sans" font-weight="bold" font-size="40pt" fill="#607d8b" stroke="#ffffff" stroke-width="4" paint-order="stroke"><text transform="matrix(0.707 0.409 -0.707 0.409 0 0)" y="45.599999999999994"><tspan>EU-WEST-1</tspan></text></g></svg></g></g></g></g><g pointer-events="auto"></g><g pointer-events="auto"></g><g pointer-events="auto"></g><g pointer-events="auto"></g><g pointer-events="auto"></g><g pointer-events="none"></g><g pointer-events="auto"><g id="d2677aad-8ffe-46c7-9a43-a5c231798b55-d7f870cd-0561-4f30-b83d-5fab91b79a06"><g cursor="cell"><line x1="-400" y1="-157" x2="-822" y2="87" stroke="red" stroke-width="8" opacity="0"></line><line x1="-400" y1="-157" x2="-822" y2="87" stroke="#000000" stroke-width="2" stroke-linecap="round"></line><polygon points="-832 93, -806 87, -820 85, -823 78, -832 93" stroke-linejoin="round" fill="#000000" stroke="#000000" stroke-width="1"></polygon></g></g><g id="d7f870cd-0561-4f30-b83d-5fab91b79a06-fe4d13cd-c05d-4e26-ab12-c568b417cf1a"><g cursor="cell"><line x1="-832" y1="93" x2="-464" y2="120" stroke="red" stroke-width="8" opacity="0"></line><line x1="-832" y1="93" x2="-464" y2="120" stroke="#000000" stroke-width="2" stroke-linecap="round"></line></g></g><g id="fe4d13cd-c05d-4e26-ab12-c568b417cf1a-3b18c046-bf71-4aaa-90cb-fa5ee18191b8"><g cursor="cell"><line x1="-384" y1="74" x2="-369" y2="-131" stroke="red" stroke-width="8" opacity="0"></line><line x1="-384" y1="74" x2="-369" y2="-131" stroke="#000000" stroke-width="2" stroke-linecap="round"></line><polygon points="-368 -139, -381 -125, -369 -129, -358 -124, -368 -139" stroke-linejoin="round" fill="#000000" stroke="#000000" stroke-width="1"></polygon></g></g><g id="3b18c046-bf71-4aaa-90cb-fa5ee18191b8-d2677aad-8ffe-46c7-9a43-a5c231798b55"><g cursor="cell"><line x1="-368" y1="-139" x2="-400" y2="-157" stroke="red" stroke-width="8" opacity="0"></line><line x1="-368" y1="-139" x2="-400" y2="-157" stroke="#000000" stroke-width="2" stroke-linecap="round"></line></g></g><g id="cf86edc1-59a0-4263-8e24-d7078043f589-826b5bc8-6b7e-41b4-be2b-62be242c073b"><g cursor="cell"><line x1="-1180" y1="293" x2="-956" y2="161" stroke="red" stroke-width="8" opacity="0"></line><line x1="-1180" y1="293" x2="-956" y2="161" stroke="#000000" stroke-width="2" stroke-linecap="round"></line><polygon points="-947 156, -972 161, -959 163, -956 170, -947 156" stroke-linejoin="round" fill="#000000" stroke="#000000" stroke-width="1"></polygon></g></g></g><g pointer-events="auto"><g><g class="cloud-maps_raptor_node" id="0805d397-71f8-4954-a752-c1b9d450c7c9"><svg x="-293" y="-318" width="106.128" height="80.616"><path fill="#d2d2d4" stroke="#83838a" d="M.999 37.95v18.476l40 23.094V61.045zM41 61.045h24V79.52H41z" stroke-width=".999"></path><path fill="#b8b8bb" stroke="#83838a" d="m65 79.52 40.001-23.094V37.949l-40 23.095z" stroke-width=".999"></path><path fill="#ececed" stroke="#83838a" d="M105.001 37.95V24.093l-40-23.094H41L.999 24.093V37.95l40 23.095H65z" stroke-width=".999"></path><path fill="none" stroke="#000000" d="m.999 56.426 40 23.094H65l40.001-23.094V24.093l-40-23.094H41L.999 24.093Z" stroke-width="1.998"></path><g fill="#4286c5"><path d="m42.32 9.88 2.514 1.453-25.936 14.974-2.514-1.452zm7.065 4.08 2.514 1.452-25.936 14.974-2.514-1.452zm30.65 17.697 2.515 1.451-25.936 14.975L54.1 46.63zm7.066 4.079 2.515 1.451L63.68 52.162l-2.515-1.452zm-36.22 5.03-14.76-8.521a3.004 1.734 0 0 1 0-2.454l14.76-8.521a3.004 1.734 0 0 1 4.248 0l14.76 8.521a3.004 1.734 0 0 1 0 2.453l-14.76 8.522a3.004 1.734 0 0 1-4.248 0zm-11.855-9.748 13.98 8.071 13.98-8.071-13.98-8.072z"></path><path d="m56.463 19.411 2.515 1.452-3.533 2.04-2.515-1.452zm4.715 2.722 2.514 1.452-3.533 2.04-2.514-1.452zm4.714 2.722 2.515 1.452-3.533 2.04-2.515-1.452zm4.715 2.722 2.514 1.452-3.533 2.04-2.514-1.452zm-34.171 3.397 2.515 1.452-3.533 2.04-2.515-1.452zm4.715 2.722 2.514 1.452-3.533 2.04-2.514-1.452zm4.714 2.722 2.515 1.452-3.533 2.04-2.515-1.452zm4.715 2.722 2.514 1.452-3.533 2.04-2.514-1.452z"></path><path d="m49.549 19.411 3.533 2.04-2.515 1.452-3.533-2.04zm-4.715 2.722 3.533 2.04-2.515 1.452-3.532-2.04zm-4.714 2.722 3.533 2.04-2.515 1.452-3.533-2.04zm-4.715 2.722 3.533 2.04-2.515 1.452-3.533-2.04zm34.17 3.397 3.534 2.04-2.515 1.452-3.533-2.04zm-4.714 2.722 3.533 2.04-2.514 1.451-3.533-2.04zm-4.714 2.722 3.533 2.04-2.515 1.451-3.533-2.04zm-4.715 2.722 3.533 2.04-2.514 1.451-3.533-2.04z"></path></g></svg></g></g><g><g class="cloud-maps_raptor_node" id="76a3367c-48f3-4034-99f5-4552311ae74a"><svg x="-229" y="-281" width="106.128" height="80.616"><path fill="#d2d2d4" stroke="#83838a" d="M.999 37.95v18.476l40 23.094V61.045zM41 61.045h24V79.52H41z" stroke-width=".999"></path><path fill="#b8b8bb" stroke="#83838a" d="m65 79.52 40.001-23.094V37.949l-40 23.095z" stroke-width=".999"></path><path fill="#ececed" stroke="#83838a" d="M105.001 37.95V24.093l-40-23.094H41L.999 24.093V37.95l40 23.095H65z" stroke-width=".999"></path><path fill="none" stroke="#000000" d="m.999 56.426 40 23.094H65l40.001-23.094V24.093l-40-23.094H41L.999 24.093Z" stroke-width="1.998"></path><g fill="#4286c5"><path d="m42.32 9.88 2.514 1.453-25.936 14.974-2.514-1.452zm7.065 4.08 2.514 1.452-25.936 14.974-2.514-1.452zm30.65 17.697 2.515 1.451-25.936 14.975L54.1 46.63zm7.066 4.079 2.515 1.451L63.68 52.162l-2.515-1.452zm-36.22 5.03-14.76-8.521a3.004 1.734 0 0 1 0-2.454l14.76-8.521a3.004 1.734 0 0 1 4.248 0l14.76 8.521a3.004 1.734 0 0 1 0 2.453l-14.76 8.522a3.004 1.734 0 0 1-4.248 0zm-11.855-9.748 13.98 8.071 13.98-8.071-13.98-8.072z"></path><path d="m56.463 19.411 2.515 1.452-3.533 2.04-2.515-1.452zm4.715 2.722 2.514 1.452-3.533 2.04-2.514-1.452zm4.714 2.722 2.515 1.452-3.533 2.04-2.515-1.452zm4.715 2.722 2.514 1.452-3.533 2.04-2.514-1.452zm-34.171 3.397 2.515 1.452-3.533 2.04-2.515-1.452zm4.715 2.722 2.514 1.452-3.533 2.04-2.514-1.452zm4.714 2.722 2.515 1.452-3.533 2.04-2.515-1.452zm4.715 2.722 2.514 1.452-3.533 2.04-2.514-1.452z"></path><path d="m49.549 19.411 3.533 2.04-2.515 1.452-3.533-2.04zm-4.715 2.722 3.533 2.04-2.515 1.452-3.532-2.04zm-4.714 2.722 3.533 2.04-2.515 1.452-3.533-2.04zm-4.715 2.722 3.533 2.04-2.515 1.452-3.533-2.04zm34.17 3.397 3.534 2.04-2.515 1.452-3.533-2.04zm-4.714 2.722 3.533 2.04-2.514 1.451-3.533-2.04zm-4.714 2.722 3.533 2.04-2.515 1.451-3.533-2.04zm-4.715 2.722 3.533 2.04-2.514 1.451-3.533-2.04z"></path></g></svg></g></g><g><g class="cloud-maps_raptor_node" id="89874939-f489-4741-9ab3-e3cbd604c3cf"><svg x="-357" y="-281" width="106.128" height="80.616"><path fill="#d2d2d4" stroke="#83838a" d="M.999 37.95v18.476l40 23.094V61.045zM41 61.045h24V79.52H41z" stroke-width=".999"></path><path fill="#b8b8bb" stroke="#83838a" d="m65 79.52 40.001-23.094V37.949l-40 23.095z" stroke-width=".999"></path><path fill="#ececed" stroke="#83838a" d="M105.001 37.95V24.093l-40-23.094H41L.999 24.093V37.95l40 23.095H65z" stroke-width=".999"></path><path fill="none" stroke="#000000" d="m.999 56.426 40 23.094H65l40.001-23.094V24.093l-40-23.094H41L.999 24.093Z" stroke-width="1.998"></path><g fill="#4286c5"><path d="m42.32 9.88 2.514 1.453-25.936 14.974-2.514-1.452zm7.065 4.08 2.514 1.452-25.936 14.974-2.514-1.452zm30.65 17.697 2.515 1.451-25.936 14.975L54.1 46.63zm7.066 4.079 2.515 1.451L63.68 52.162l-2.515-1.452zm-36.22 5.03-14.76-8.521a3.004 1.734 0 0 1 0-2.454l14.76-8.521a3.004 1.734 0 0 1 4.248 0l14.76 8.521a3.004 1.734 0 0 1 0 2.453l-14.76 8.522a3.004 1.734 0 0 1-4.248 0zm-11.855-9.748 13.98 8.071 13.98-8.071-13.98-8.072z"></path><path d="m56.463 19.411 2.515 1.452-3.533 2.04-2.515-1.452zm4.715 2.722 2.514 1.452-3.533 2.04-2.514-1.452zm4.714 2.722 2.515 1.452-3.533 2.04-2.515-1.452zm4.715 2.722 2.514 1.452-3.533 2.04-2.514-1.452zm-34.171 3.397 2.515 1.452-3.533 2.04-2.515-1.452zm4.715 2.722 2.514 1.452-3.533 2.04-2.514-1.452zm4.714 2.722 2.515 1.452-3.533 2.04-2.515-1.452zm4.715 2.722 2.514 1.452-3.533 2.04-2.514-1.452z"></path><path d="m49.549 19.411 3.533 2.04-2.515 1.452-3.533-2.04zm-4.715 2.722 3.533 2.04-2.515 1.452-3.532-2.04zm-4.714 2.722 3.533 2.04-2.515 1.452-3.533-2.04zm-4.715 2.722 3.533 2.04-2.515 1.452-3.533-2.04zm34.17 3.397 3.534 2.04-2.515 1.452-3.533-2.04zm-4.714 2.722 3.533 2.04-2.514 1.451-3.533-2.04zm-4.714 2.722 3.533 2.04-2.515 1.451-3.533-2.04zm-4.715 2.722 3.533 2.04-2.514 1.451-3.533-2.04z"></path></g></svg></g></g><g><g class="cloud-maps_raptor_node" id="fe4d13cd-c05d-4e26-ab12-c568b417cf1a"><svg x="-480" y="16" width="96" height="113.438"><g transform="translate(412.599 -86.957)"><path fill="#3c3c3c" d="M-411.594 145.123v18.088l31.33 18.089h31.33l31.33-18.089v-18.088l-31.33-18.089h-31.33z" fill-rule="evenodd"></path><path fill="#090909" d="m-348.934 181.3 31.33-18.089V181.3l-31.33 18.088z" fill-rule="evenodd"></path><path fill="#232323" d="M-380.264 181.3h31.33v18.088h-31.33zm-31.33-18.089V181.3l31.33 18.088V181.3z" fill-rule="evenodd"></path><path fill="none" stroke="#000" d="m-411.594 163.211 31.33 18.089h31.33l31.33-18.089m-62.66 18.089v18.088m31.33-18.088v18.088" stroke-width="1.005"></path><path fill="none" stroke="#000000" d="M-411.594 145.123V181.3l31.33 18.088h31.33l31.33-18.088v-36.177l-31.33-18.089h-31.33z" stroke-width="2.01"></path><path fill="#3c3c3c" d="M-411.594 125.588v18.088l31.33 18.089h31.33l31.33-18.089v-18.088l-31.33-18.089h-31.33z" fill-rule="evenodd"></path><path fill="#090909" d="m-348.934 161.765 31.33-18.089v18.089l-31.33 18.088z" fill-rule="evenodd"></path><path fill="#232323" d="M-380.264 161.765h31.33v18.088h-31.33zm-31.33-18.089v18.089l31.33 18.088v-18.088z" fill-rule="evenodd"></path><path fill="none" stroke="#000" d="m-411.594 143.676 31.33 18.089h31.33l31.33-18.089m-62.66 18.089v18.088m31.33-18.088v18.088" stroke-width="1.005"></path><path fill="none" stroke="#000000" d="M-411.594 125.588v36.177l31.33 18.088h31.33l31.33-18.088v-36.177l-31.33-18.089h-31.33z" stroke-width="2.01"></path><path fill="#3c3c3c" d="M-411.594 106.05v18.09l31.33 18.088h31.33l31.33-18.089v-18.088l-31.33-18.089h-31.33z" fill-rule="evenodd"></path><path fill="#090909" d="m-348.934 142.228 31.33-18.089v18.089l-31.33 18.088z" fill-rule="evenodd"></path><path fill="#232323" d="M-380.264 142.228h31.33v18.088h-31.33zm-31.33-18.088v18.088l31.33 18.088v-18.088z" fill-rule="evenodd"></path><path fill="none" stroke="#000" d="m-411.594 124.14 31.33 18.088h31.33l31.33-18.089m-62.66 18.089v18.088m31.33-18.088v18.088" stroke-width="1.005"></path><path fill="none" stroke="#000000" d="M-411.594 106.05v36.178l31.33 18.088h31.33l31.33-18.088V106.05l-31.33-18.089h-31.33z" stroke-width="2.01"></path><circle cx="-95.405" cy="325.596" r="21.926" fill="#f4b934" transform="scale(1.22475 .7071) rotate(45)"></circle><g><path fill="#ffffff" d="m-127.434 301.586-.302-.818q-.136-.375-.321-.512-.18-.136-.638-.136h-.545v-1.144h1.007q.887 0 1.364.375.482.375.813 1.26l2.23 5.94h-1.744l-1.085-2.862-1.144 2.862h-1.743z" transform="matrix(3.51718 2.03071 -3.51718 2.03071 1146.824 -241.7)" font-family="Droid Serif" font-size="9.971"></path></g></g></svg></g></g><g><g class="cloud-maps_raptor_node" id="d7f870cd-0561-4f30-b83d-5fab91b79a06"><svg x="-942" y="48" width="123" height="108.05"><path fill="#090909" stroke="#000" d="M38.23 22.751v53.738l29.756-16.317v-54.6Z" fill-rule="evenodd" stroke-linejoin="round" stroke-width="1.011"></path><path fill="#232323" stroke="#000" d="m1 8.421 37.23 14.33v53.738L1 44.247Z" fill-rule="evenodd" stroke-linejoin="round"></path><path fill="#3c3c3c" stroke="#000" d="M38.23 22.751 67.986 5.573 13.411 1.255 1.001 8.421z" fill-rule="evenodd" stroke-linejoin="round"></path><path fill="none" stroke="#000000" d="m1 44.247 37.23 32.242 29.756-16.317v-54.6l-55.165-4.55-11.82 6.826z" stroke-width="2"></path><path fill="#3c3c3c" stroke="#000" d="M84.77 13.794 53.747 31.712l56.04 39.295L122 63.955z" fill-rule="evenodd" stroke-width="1.011"></path><path fill="#232323" stroke="#000" d="M53.747 31.712v53.739l55.847 21.494.194-35.938z" fill-rule="evenodd"></path><path fill="#090909" stroke="#000" d="M109.788 71.007 122 63.955v35.823l-12.406 7.168z" fill-rule="evenodd"></path><path fill="none" stroke="#000000" d="M84.77 13.794 53.747 31.712v53.739l55.847 21.494L122 99.778V63.955z" stroke-width="2"></path><path fill="#f4b934" d="M79.713 77.218q.615 1.415.18 2.416-.435 1-1.666 1-1.23 0-2.536-1-1.306-1.001-1.92-2.416-.616-1.415-.18-2.416.435-1.001 1.665-1.001t2.536 1.001q1.306 1 1.921 2.416zm5.943-6.835q.302.695.08 1.201-.22.507-.823.508-.603 0-1.265-.508-.663-.508-.964-1.2-.308-.708-.09-1.209.218-.5.833-.5t1.268.5q.654.5.961 1.208zm5.943 13.67q.302.694.081 1.201-.22.507-.824.508-.603 0-1.265-.508-.662-.508-.964-1.201-.307-.707-.09-1.208.218-.501.833-.501t1.269.5q.653.502.96 1.209zm-6.9-5.62-1.074-2.47q-.059-.134-.195-.26t-.247-.14l-1.939-.321q-.33-.467-.812-1.015.116-.64.377-1.535.023-.134-.034-.267-.07-.16-.19-.254-.442-.4-1.478-1.194-1.035-.794-1.257-.795-.127 0-.203.093l-.812 1.202q-.54-.254-1.074-.415-.755-1.442-1.167-2.069-.22-.32-.488-.32h-2.159q-.127 0-.188.1-.062.1-.015.233l.62 2.043q-.336.133-.69.414l-1.886-1.188q-.122-.093-.273-.093-.127 0-.197.107-.9 1.775-.743 2.136.053.12.192.253.197.187.783.707.586.52.9.814-.012.588.069 1.095l-1.625.32q-.11.016-.142.127-.03.114.03.26l1.074 2.47q.058.134.194.26.136.127.247.141l1.939.32q.33.468.812 1.015-.116.641-.377 1.536-.019.146.034.267.07.16.197.266.43.401 1.468 1.188 1.039.788 1.26.788.127 0 .203-.093l.813-1.201q.499.24 1.08.427.754 1.442 1.16 2.056.221.32.488.32h2.159q.127 0 .189-.1.06-.1.015-.234l-.621-2.042q.336-.134.69-.414l1.886 1.187q.134.093.273.093.127 0 .197-.107.9-1.775.743-2.135-.053-.12-.192-.254-.232-.214-.8-.72-.57-.507-.871-.8-.012-.642-.082-1.095l1.631-.308q.105-.026.136-.14.03-.114-.03-.26zm4.335-7.115-.812-1.87q-.093-.213-1.91-.413-.296-.36-.65-.695-.064-1.508-.21-1.842-.022-.053-.086-.093-1.829-.948-1.851-.948-.093 0-.261.628-.169.627-.21.907-.244-.026-.36-.026-.116 0-.337.026-.284-.28-.998-.907-.714-.628-.807-.628-.022 0-1.027.948-.03.04-.007.093.145.333 1.393 1.842-.064.333-.047.695-1.643.2-1.55.414l.813 1.869q.093.213 1.91.414.319.387.65.694.063 1.509.209 1.842.022.053.086.093.058.027.523.267.464.24.882.454.418.214.442.214.093 0 .263-.62.171-.621.213-.902.244.027.36.027.116 0 .337-.027 1.004.948 1.718 1.495l.081.027q.046 0 1.033-.934.03-.04.008-.093-.145-.334-1.393-1.843.064-.307.046-.694 1.643-.2 1.55-.414zm5.944 13.67-.813-1.87q-.093-.214-1.91-.414-.295-.36-.65-.694-.064-1.509-.209-1.842-.022-.053-.087-.093-1.828-.948-1.851-.948-.093 0-.26.627-.169.627-.21.908-.244-.027-.36-.027-.117 0-.337.027-.285-.28-.999-.908-.714-.627-.806-.627-.023 0-1.027.948-.03.04-.008.093.145.333 1.393 1.842-.063.333-.046.694-1.643.2-1.55.414l.812 1.87q.093.213 1.91.413.32.388.65.695.064 1.508.21 1.842.022.053.086.093.058.026.522.267.465.24.883.453.418.214.441.214.093 0 .264-.62.17-.62.212-.901.244.026.36.026.117 0 .337-.026 1.005.948 1.718 1.495l.082.026q.046 0 1.033-.934.03-.04.007-.093-.144-.333-1.393-1.842.064-.307.047-.694 1.643-.2 1.55-.414z"></path></svg></g></g><g><g class="cloud-maps_raptor_node" id="cf86edc1-59a0-4263-8e24-d7078043f589"><svg x="-1240" y="228" width="63" height="95.068"><path fill="#000" stroke="#000000" d="M62.5 85.684q0 6.102-3.216 7.779-3.216 1.677-8.542-1.398l-38.486-22.22q-5.329-3.077-8.542-8.466Q.501 55.991.498 49.887q0-2.693.156-5.172.155-2.479.616-5.185.461-2.707 1.167-4.845.705-2.139 1.893-3.864 1.19-1.726 2.73-2.541 1.541-.816 3.766-.546 2.224.27 4.91 1.818.397.23 1.849 2.162t3.28 4.333q1.827 2.402 4.757 5.187 2.93 2.785 5.878 4.487 2.95 1.703 5.88 2.301 2.929.598 4.756.306 1.827-.292 3.28-.546 1.452-.255 1.85-.026 2.685 1.55 4.909 3.85 2.224 2.301 3.765 4.894 1.542 2.593 2.73 5.693 1.189 3.101 1.894 6.051.705 2.95 1.166 6.192.462 3.242.617 5.897.155 2.655.155 5.352zm-14.09-53.54q0 8.083-4.955 10.944-4.954 2.86-11.955-1.182-7-4.042-11.955-12.623-4.954-8.58-4.954-16.664 0-8.084 4.954-10.944 4.954-2.86 11.955 1.181 7.001 4.042 11.955 12.623 4.954 8.58 4.954 16.665z" stroke-width=".996"></path></svg></g></g></g><g pointer-events="auto"></g><g pointer-events="auto"></g><g pointer-events="auto"><g><g class="cloud-maps_raptor_node" id="826b5bc8-6b7e-41b4-be2b-62be242c073b" transform="translate(0 0)"><svg x="-992" y="93" overflow="visible"><text stroke="#ffffff" stroke-width="4" font-family="Noto Sans" y="36.5" font-size="25pt" fill="#000000" font-weight="bold" transform="matrix(0.707 0.409 -0.707 0.409 0 0)" paint-order="stroke" xml:space="preserve"><tspan x="8" dy="0">API GAteway</tspan></text></svg></g></g><g><g class="cloud-maps_raptor_node" id="9b4cb114-fc73-43a9-8494-feb6e66ade0e" transform="translate(0 0)"><svg x="-496" y="120" overflow="visible"><text stroke="#ffffff" stroke-width="4" font-family="Noto Sans" y="36.5" font-size="25pt" fill="#000000" font-weight="bold" transform="matrix(0.707 0.409 -0.707 0.409 0 0)" paint-order="stroke" xml:space="preserve"><tspan x="8" dy="0">Lambda</tspan></text></svg></g></g></g></g></svg>